<?xml version="1.0" standalone="no"?>
<!DOCTYPE svg PUBLIC "-//W3C//DTD SVG 20010904//EN"
 "http://www.w3.org/TR/2001/REC-SVG-20010904/DTD/svg10.dtd">
<svg version="1.0" xmlns="http://www.w3.org/2000/svg"
 width="153.000000pt" height="153.000000pt" viewBox="0 0 153.000000 153.000000"
 preserveAspectRatio="xMidYMid meet">
<metadata>
Created by potrace 1.11, written by Peter Selinger 2001-2013
</metadata>
<g transform="translate(0.000000,153.000000) scale(0.100000,-0.100000)"
fill="#000000" stroke="none">
<path d="M431 1517 c-77 -9 -175 -52 -228 -101 -44 -39 -99 -133 -108 -186 -3
-18 -8 -37 -11 -42 -7 -11 -7 -215 0 -226 3 -5 7 -21 10 -35 17 -95 100 -205
199 -263 96 -56 151 -66 396 -67 206 -2 218 -3 252 -25 47 -29 59 -44 69 -86
6 -26 3 -42 -11 -65 -34 -56 -29 -56 -493 -61 l-430 -5 1 -62 c1 -35 2 -68 2
-73 1 -7 151 -10 469 -8 l467 3 53 29 c38 21 61 44 80 75 24 41 27 56 27 136
0 80 -3 97 -30 150 -37 74 -94 119 -167 134 -29 6 -159 12 -288 13 -224 3
-237 4 -279 27 -118 62 -169 170 -158 332 7 110 43 182 111 224 l49 30 464 3
463 3 44 67 c24 37 44 71 45 76 1 11 -909 14 -998 3z"/>
<path d="M420 1299 c-64 -39 -92 -79 -108 -160 -24 -120 15 -238 95 -289 26
-17 63 -35 83 -40 19 -5 132 -10 250 -10 160 0 231 -4 274 -15 147 -38 220
-146 219 -325 0 -134 -51 -224 -153 -273 -44 -22 -56 -22 -523 -25 -365 -2
-477 -6 -478 -15 -4 -52 -3 -115 2 -127 6 -13 65 -15 451 -14 486 2 517 3 608
34 185 62 280 203 281 417 1 213 -80 367 -236 444 -95 47 -161 55 -408 53
-251 -2 -275 3 -295 60 -15 41 -8 103 14 127 16 18 39 19 363 19 l347 0 52 80
51 80 -427 0 c-415 0 -428 -1 -462 -21z"/>
</g>
</svg>
